<svg width="16" height="16" viewBox="0 0 16 16" fill="none" xmlns="http://www.w3.org/2000/svg">
<path fill-rule="evenodd" clip-rule="evenodd" d="M14 8C14 11.3129 11.3129 14 8 14C4.68714 14 2 11.3129 2 8C2 4.68714 4.68714 2 8 2C11.3129 2 14 4.68714 14 8ZM7.342 11.2518L7.342 7.85796C7.342 7.65665 7.43084 7.47609 7.57144 7.35334C7.68914 7.2506 7.8431 7.18836 8.0116 7.18836C8.16925 7.18836 8.31418 7.24284 8.42858 7.33401C8.58253 7.45669 8.6812 7.6458 8.6812 7.85796V7.99638L8.6812 9.09352L8.6812 11.2518C8.6812 11.6216 8.38141 11.9214 8.0116 11.9214C7.64179 11.9214 7.342 11.6216 7.342 11.2518ZM7.3132 4.90596V5.06436C7.3132 5.28321 7.41387 5.47856 7.57143 5.60661C7.69155 5.70424 7.84474 5.76276 8.0116 5.76276C8.1679 5.76276 8.31221 5.71141 8.42858 5.62467C8.59939 5.49735 8.71 5.29377 8.71 5.06436V4.90596C8.71 4.62568 8.5449 4.38396 8.30665 4.27276C8.21702 4.23092 8.11704 4.20756 8.0116 4.20756C7.88886 4.20756 7.77351 4.23922 7.67328 4.29483C7.45854 4.41396 7.3132 4.64298 7.3132 4.90596Z" fill="url(#paint0_linear_4420_63034)"/>
<defs>
<linearGradient id="paint0_linear_4420_63034" x1="1.85" y1="2" x2="13.85" y2="14" gradientUnits="userSpaceOnUse">
<stop stop-color="#6D4D6E"/>
<stop offset="1" stop-color="#48214A"/>
</linearGradient>
</defs>
</svg>
