<svg xmlns="http://www.w3.org/2000/svg" width="124" height="35" fill="none"><path fill="#2D2D2D" d="M14.34 3.216 2.4 32.158h2.945l3.357-8.27h14.303l3.357 8.27h3.11L17.533 3.216H14.34Zm-4.642 18.15 6.176-15.174 6.138 15.173H9.698Zm32.395-11.123c-3.4 0-5.887 1.738-7.089 4.052V2.386H32.27v29.771h2.735V19.796c0-4.714 3.026-7.153 6.344-7.153 3.318 0 5.722 2.108 5.722 6.326V32.16h2.736V18.64c0-5.707-3.151-8.394-7.71-8.394l-.003-.002Zm21.541.002c-5.264 0-10.197 4.052-10.197 11.04 0 6.99 4.56 11.33 10.406 11.33 4.52 0 8.5-2.314 9.743-6.574h-2.735c-1.202 2.77-3.69 4.219-6.924 4.219-4.311 0-7.504-3.432-7.71-8.23h17.495v-.745c0-7.236-4.727-11.04-10.075-11.04h-.003Zm-7.42 9.55c.332-4.508 3.608-7.236 7.379-7.236 3.77 0 7.088 2.728 7.297 7.236H56.214Zm62.651-17.409v12.487c-1.16-2.647-4.063-4.63-7.752-4.63-5.265 0-9.908 4.135-9.908 11.04 0 6.906 4.518 11.33 9.908 11.33 3.689 0 6.634-2.274 7.752-5.044v4.588h2.735V2.387h-2.735Zm-7.381 27.87c-4.228 0-7.462-3.433-7.462-8.973 0-5.54 3.234-8.682 7.462-8.682 3.773 0 7.42 2.77 7.42 8.682 0 5.913-3.689 8.972-7.42 8.972ZM92.677 10.477H77.15v2.737l15.418-.38a2.445 2.445 0 0 1 2.509 2.49l-.335 16.834h2.694V15.225a4.755 4.755 0 0 0-4.76-4.748h.002Z"/><path fill="#2D2D2D" d="M89.47 16.834 76.677 30.626l1.946 1.99L91.49 18.695a1.366 1.366 0 0 0-.094-1.949 1.375 1.375 0 0 0-1.925.089Z"/></svg>